<svg xmlns="http://www.w3.org/2000/svg" viewBox="0 0 116.42 77.04"><defs><style>.cls-1{fill:#fff;stroke:#fff;stroke-miterlimit:10;stroke-width:2px;}</style></defs><title>logo</title><g id="레이어_2" data-name="레이어 2"><g id="레이어_1-2" data-name="레이어 1"><path class="cls-1" d="M108.46,61.1A9.22,9.22,0,0,1,113.55,63a4.58,4.58,0,0,1,1.87,3.52q0,1.94-2.55,3.42c-1.69,1-4.3,1.48-7.81,1.48l-15.78-.51-22.58.51a278,278,0,0,0-35.48,2.21c-2,.23-4.47.62-7.3,1.19a27.12,27.12,0,0,0-4.33.68,15.64,15.64,0,0,1-2.8.51q-2.71,0-9.25-3.91T1,66a1.05,1.05,0,0,1,1.19-1.19,89.92,89.92,0,0,0,10.69,1.53q7,.67,14.26.68Q33.08,67,47,66.7c9.27-.23,14.2-.34,14.76-.34h3.4c.57-1.92,1-3.51,1.36-4.75,1.24-4.53,2.21-8.26,2.88-11.21s1.45-6.68,2.3-11.2a75.64,75.64,0,0,0,1.27-8q0-2.2-4.92-5.43t-4.93-4.08c0-.56.45-1,1.36-1.19a6.11,6.11,0,0,1,1.7-.17q4.08,0,11.71,2.63t7.64,5.52a7.14,7.14,0,0,1-1.19,3.23A20.39,20.39,0,0,0,83,34.27q0,.85-6,16.3-1.86,5.1-5.94,15.28,4.92-.16,10-.51a29.42,29.42,0,0,0,6.45-.85,32.33,32.33,0,0,1,8-2.63,39.9,39.9,0,0,1,7.3-.76ZM100.31,1.85c2.94.57,4.42,2,4.42,4.24,0,2.95-2.33,4.42-7,4.42L61.61,11A186,186,0,0,0,39,12.21a63.21,63.21,0,0,0-7.64,1.35c-1.47.34-2.95.63-4.42.85q-3,0-9.25-3t-6.19-5a1,1,0,0,1,1.18-1.19Q17,5.93,24.09,6.43t13.75.51H43.1q12.9,0,22.07-.85a68.62,68.62,0,0,0,17.49-3.9A22.1,22.1,0,0,1,90.8,1,48.37,48.37,0,0,1,100.31,1.85ZM45,39.37a12.16,12.16,0,0,1,1,3.39,22.86,22.86,0,0,1,.34,3.57,17.7,17.7,0,0,1-1.7,8q-1.7,3.39-3.74,3.39-3.9,0-4.32-2.88a41.21,41.21,0,0,1-.43-6.12,48.15,48.15,0,0,0-.51-8.06q-.51-2.8-3.65-9.25t-3.14-8c.45-.79.79-1.19,1-1.19q2.2,0,7.64,6.45A55.15,55.15,0,0,1,45,39.37Z"/></g></g></svg>