<svg xmlns="http://www.w3.org/2000/svg" xmlns:xlink="http://www.w3.org/1999/xlink" viewBox="0 0 750 1334"><defs><style>.cls-1{fill:url(#무제_그라디언트_7);}.cls-2{fill:#fff;stroke:#fff;stroke-miterlimit:10;stroke-width:2px;}</style><linearGradient id="무제_그라디언트_7" x1="-146" y1="146" x2="896" y2="1188" gradientUnits="userSpaceOnUse"><stop offset="0" stop-color="#ff5173"/><stop offset="1" stop-color="#d9375a"/></linearGradient></defs><title>splash</title><g id="레이어_2" data-name="레이어 2"><g id="레이어_1-2" data-name="레이어 1"><rect class="cls-1" width="750" height="1334"/><path class="cls-2" d="M425.25,649.58a9.15,9.15,0,0,1,5.09,1.94,4.54,4.54,0,0,1,1.87,3.51q0,1.94-2.55,3.42c-1.69,1-4.3,1.48-7.81,1.48l-15.78-.51-22.58.51A278,278,0,0,0,348,662.14c-2,.23-4.47.62-7.3,1.19a27.12,27.12,0,0,0-4.33.68,15.64,15.64,0,0,1-2.8.51q-2.71,0-9.25-3.91t-6.54-6.11a1.05,1.05,0,0,1,1.19-1.19,89.92,89.92,0,0,0,10.69,1.53q7,.67,14.26.68,5.94,0,19.87-.34c9.27-.22,14.2-.34,14.76-.34H382c.57-1.92,1-3.51,1.36-4.75,1.24-4.53,2.21-8.26,2.88-11.21s1.45-6.67,2.3-11.2a75.64,75.64,0,0,0,1.27-8q0-2.21-4.92-5.43t-4.93-4.08c0-.56.45-1,1.36-1.18a5.74,5.74,0,0,1,1.7-.17q4.08,0,11.71,2.63t7.64,5.51a7.1,7.1,0,0,1-1.19,3.23,20.2,20.2,0,0,0-1.35,2.55q0,.84-6,16.29-1.86,5.1-5.94,15.28,4.92-.17,10-.51a29.42,29.42,0,0,0,6.45-.85,32.33,32.33,0,0,1,8-2.63,39.9,39.9,0,0,1,7.3-.76Zm-8.15-59.25c2.94.57,4.42,2,4.42,4.25,0,2.94-2.33,4.41-7,4.41l-36.15.51a188.06,188.06,0,0,0-22.58,1.19,67.42,67.42,0,0,0-7.64,1.35c-1.47.34-2.95.63-4.42.85q-3,0-9.25-3t-6.19-5a1,1,0,0,1,1.18-1.19q4.25.67,11.38,1.19t13.75.5h5.26q12.9,0,22.07-.84a69.06,69.06,0,0,0,17.49-3.91,22.1,22.1,0,0,1,8.14-1.19A49.14,49.14,0,0,1,417.1,590.33Zm-55.34,37.52a12.37,12.37,0,0,1,1,3.39,22.86,22.86,0,0,1,.34,3.57,17.64,17.64,0,0,1-1.7,8q-1.69,3.39-3.74,3.39-3.9,0-4.32-2.88a41.07,41.07,0,0,1-.43-6.11,48.21,48.21,0,0,0-.51-8.07q-.51-2.8-3.65-9.25t-3.14-8c.45-.79.79-1.19,1-1.19q2.21,0,7.64,6.45A55.46,55.46,0,0,1,361.76,627.85Z"/></g></g></svg>